# xmcd
#
# Track frame offsets:
# 150
# 15298
# 31741
# 46658
# 64007
# 81149
# 84962
# 111627
# 129409
# 145951
# 162274
# 177637
# 189232
# 204815
#
# Disc length: 3058 seconds
#
#
# Revision: 2
# Processed by: cddbd v1.5.1PL0 Copyright (c) Steve Scherf et al.
# Submitted via: FreeRIP 2.80 
#
DISCID=aa0bf00e
DTITLE=Sektion Kuchikäschtli - Dorfgschichta
DYEAR=2002
DGENRE=
TTITLE0=Kuchikäschtlihiphop
TTITLE1=Stimmgabla
TTITLE2=Klartext
TTITLE3=Swissdate Mit Toni Lonoce Und Sulaya
TTITLE4=Ächta Räp
TTITLE5=Nöchschta Track
TTITLE6=Dr. Falschi
TTITLE7=Raimlischiaber
TTITLE8=Toni Lonoce Mit Toni Lonoce
TTITLE9=Monolog
TTITLE10=Gschlächtsstyle
TTITLE11=Coming Out
TTITLE12=Gaschtreferat Mit Taz Und M.a.r.c.
TTITLE13=Stohbliiba
EXTD=
EXTT0=
EXTT1=
EXTT2=
EXTT3=
EXTT4=
EXTT5=
EXTT6=
EXTT7=
EXTT8=
EXTT9=
EXTT10=
EXTT11=
EXTT12=
EXTT13=
PLAYORDER=
